# xmcd
#
# Track frame offsets:
#	150
#	13090
#	24617
#	43147
#
# Disc length: 1084 seconds
#
# Revision: 9
# Processed by: cddbd v1.5.1PL0 Copyright (c) Steve Scherf et al.
# Submitted via: dBpowerAMP V4.0
#
DISCID=2c043a04
DTITLE=Blink 182 - First Date [Single]
DYEAR=2001
DGENRE=Punk Rock
TTITLE0=First Date
TTITLE1=Don't Tell Me It's Over
TTITLE2=Mother's Day
TTITLE3=DATA
EXTD=
EXTT0=
EXTT1=
EXTT2=
EXTT3=
PLAYORDER=
